<svg xmlns="http://www.w3.org/2000/svg" viewBox="0 0 120 40" width="120" height="40">
  <rect width="120" height="40" rx="6" fill="#000"/>
  <text x="42" y="12" fill="#fff" font-family="system-ui, sans-serif" font-size="7" letter-spacing="0.5">Download on the</text>
  <text x="42" y="27" fill="#fff" font-family="system-ui, sans-serif" font-size="14" font-weight="600">App Store</text>
  <g transform="translate(10, 5) scale(0.6)">
    <path d="M24.769 20.3a5.885 5.885 0 0 1 2.8-4.94 6.018 6.018 0 0 0-4.742-2.564c-1.994-.21-3.929 1.2-4.949 1.2-1.04 0-2.606-1.18-4.292-1.144a6.266 6.266 0 0 0-5.28 3.22c-2.28 3.95-.582 9.77 1.608 12.97 1.095 1.567 2.376 3.322 4.06 3.26 1.644-.067 2.262-1.05 4.248-1.05 1.968 0 2.544 1.05 4.262 1.013 1.76-.028 2.867-1.577 3.922-3.16a13.034 13.034 0 0 0 1.786-3.64 5.688 5.688 0 0 1-3.423-5.165Z" fill="#fff"/>
    <path d="M21.514 10.93a5.8 5.8 0 0 0 1.328-4.155 5.9 5.9 0 0 0-3.818 1.977 5.526 5.526 0 0 0-1.364 4.003 4.882 4.882 0 0 0 3.854-1.825Z" fill="#fff"/>
  </g>
</svg>