<svg width="1226" height="2260" viewBox="0 0 1226 2260" fill="none" xmlns="http://www.w3.org/2000/svg">
<path d="M895.79 594.475C966.595 594.475 1023.99 651.873 1023.99 722.678V2131.63C1023.99 2202.43 966.594 2259.83 895.79 2259.83H329.133C258.329 2259.83 200.93 2202.43 200.93 2131.63V722.678C200.93 651.873 258.329 594.475 329.133 594.475H895.79ZM834.307 1318.87C814.564 1307.84 789.618 1314.9 778.587 1334.65L776.522 1338.34C704.092 1467.97 517.75 1468.51 444.574 1339.3C433.43 1319.62 408.444 1312.7 388.766 1323.84C369.087 1334.99 362.168 1359.97 373.312 1379.65C477.958 1564.44 744.436 1563.67 848.017 1378.29L850.081 1374.59C861.111 1354.85 854.049 1329.9 834.307 1318.87Z" fill="white"/>
<path d="M641.001 214.05C796.902 261.714 932.332 319.143 1025.13 372.776C1071.81 399.761 1105.7 424.646 1126.05 445.484C1136.24 455.919 1141.5 463.798 1143.82 468.885C1143.97 469.216 1144.1 469.524 1144.22 469.807C1143.96 469.976 1143.68 470.157 1143.37 470.348C1138.61 473.269 1129.84 476.859 1115.56 479.811C1087.03 485.708 1045.02 487.388 991.227 483.652C884.306 476.227 739.916 448.107 584.015 400.443C428.113 352.779 292.684 295.35 199.89 241.717C153.202 214.732 119.314 189.846 98.9646 169.008C88.7748 158.574 83.5129 150.695 81.1958 145.608C81.0444 145.276 80.9122 144.968 80.7949 144.685C81.0503 144.516 81.3321 144.335 81.6432 144.145C86.4086 141.223 95.1767 137.634 109.459 134.681C137.982 128.785 179.993 127.104 233.788 130.84C340.709 138.265 485.099 166.386 641.001 214.05Z" stroke="white" stroke-width="81.8968"/>
</svg>
