<svg width="1226" height="2260" viewBox="0 0 1226 2260" fill="none" xmlns="http://www.w3.org/2000/svg">
<path d="M895.791 594.475C966.596 594.475 1023.99 651.873 1023.99 722.678V2131.63C1023.99 2202.43 966.595 2259.83 895.791 2259.83H329.134C258.33 2259.83 200.931 2202.43 200.931 2131.63V722.678C200.931 651.873 258.33 594.475 329.134 594.475H895.791ZM834.308 1318.87C814.565 1307.84 789.619 1314.9 778.588 1334.65L776.523 1338.34C704.093 1467.97 517.751 1468.51 444.575 1339.3C433.431 1319.62 408.445 1312.7 388.767 1323.84C369.088 1334.99 362.169 1359.97 373.313 1379.65C477.959 1564.44 744.437 1563.67 848.018 1378.29L850.082 1374.59C861.112 1354.85 854.05 1329.9 834.308 1318.87Z" fill="#2D2D2A"/>
<path d="M641.002 214.05C796.903 261.714 932.333 319.143 1025.13 372.776C1071.81 399.761 1105.7 424.646 1126.05 445.484C1136.24 455.919 1141.5 463.798 1143.82 468.885C1143.97 469.216 1144.1 469.524 1144.22 469.807C1143.97 469.976 1143.68 470.157 1143.37 470.348C1138.61 473.269 1129.84 476.859 1115.56 479.811C1087.03 485.708 1045.02 487.388 991.228 483.652C884.307 476.227 739.917 448.107 584.016 400.443C428.114 352.779 292.685 295.35 199.891 241.717C153.203 214.732 119.315 189.846 98.9656 169.008C88.7758 158.574 83.5139 150.695 81.1968 145.608C81.0454 145.276 80.9132 144.968 80.7958 144.685C81.0513 144.516 81.3331 144.335 81.6442 144.145C86.4096 141.223 95.1777 137.634 109.46 134.681C137.983 128.785 179.994 127.104 233.789 130.84C340.71 138.265 485.1 166.386 641.002 214.05Z" stroke="#2D2D2A" stroke-width="81.8968"/>
</svg>
